<svg width="137" height="176" viewBox="0 0 137 176" fill="none" xmlns="http://www.w3.org/2000/svg">
<path d="M21.0699 5.6366H106.548L128.787 33.3877L103.769 65.3774L128.787 97.2678L106.896 125.194H21.0699L52.3426 86.9701L60.5083 97.9659L49.2156 111.929L99.9466 112.278L111.76 97.9659L86.2212 65.7061L111.586 33.9112L99.5988 18.9016L49.0417 18.7269L60.5083 33.5624L52.5165 43.8601L21.0699 5.6366Z" fill="#44F1A6"/>
<path d="M78.7506 31.9914H95.7768L69.3689 65.7061L95.7768 99.0134H78.7506L52.1687 65.7061L25.7608 99.0134H8.21344L35.4902 65.3774L8.21344 31.9914H25.9347L52.5165 65.3774L78.7506 31.9914Z" fill="black" stroke="black" stroke-miterlimit="10"/>
<path d="M8.89337 162.709L16.5974 148.895L8.89337 134.289H14.9408L20.3255 144.734L26.0002 134.289H31.8404L24.0947 148.354L31.6749 162.71H25.5858L20.2838 152.557L14.8164 162.71H8.89337V162.709Z" fill="black"/>
<path d="M34.698 162.709V134.289H45.9646C47.8423 134.289 49.4577 134.525 50.811 134.996C52.1637 135.468 53.2197 136.224 53.9797 137.264C54.7391 138.304 55.1185 139.699 55.1185 141.446C55.1185 142.639 55.0007 143.645 54.7663 144.463C54.5313 145.282 54.1725 145.975 53.6891 146.543C53.2058 147.112 52.577 147.632 51.8043 148.104C52.6325 148.41 53.3575 148.818 53.9791 149.332C54.6002 149.845 55.0768 150.525 55.4079 151.371C55.739 152.217 55.9051 153.334 55.9051 154.72C55.9051 156.246 55.6701 157.523 55.2007 158.549C54.7308 159.576 54.0619 160.394 53.192 161.004C52.322 161.614 51.3071 162.051 50.1477 162.315C48.9877 162.579 47.7173 162.71 46.3368 162.71H34.698V162.709ZM40.4143 146.273H45.7574C46.6957 146.273 47.4556 146.127 48.0356 145.836C48.6155 145.544 49.0433 145.101 49.3194 144.504C49.5949 143.908 49.7338 143.152 49.7338 142.236C49.7338 140.932 49.3955 139.989 48.7189 139.407C48.0417 138.824 46.9856 138.533 45.5502 138.533H40.4143V146.273ZM40.4143 158.465H45.9235C46.8895 158.465 47.6973 158.347 48.3467 158.111C48.995 157.876 49.4922 157.453 49.8377 156.842C50.1827 156.232 50.3554 155.386 50.3554 154.304C50.3554 153.472 50.2171 152.792 49.941 152.265C49.6649 151.738 49.3055 151.343 48.8639 151.079C48.4217 150.816 47.9317 150.629 47.3934 150.517C46.8551 150.406 46.3229 150.351 45.7985 150.351H40.4143V158.465Z" fill="black"/>
<path d="M66.3435 163.167C64.548 163.167 63.1603 162.785 62.1809 162.023C61.2004 161.26 60.5099 160.102 60.1099 158.548C59.7094 156.995 59.5094 155.039 59.5094 152.681V141.82H65.0185V152.431C65.0185 153.902 65.0941 155.067 65.2463 155.926C65.398 156.786 65.7085 157.397 66.1785 157.757C66.6479 158.119 67.324 158.298 68.2083 158.298C69.0639 158.298 69.8649 158.188 70.611 157.966C71.3565 157.744 71.9498 157.522 72.392 157.3V141.82H77.9011V162.709H72.4337V161.42C71.4948 161.947 70.5627 162.37 69.6377 162.689C68.7111 163.007 67.6134 163.167 66.3435 163.167Z" fill="black"/>
<path d="M82.4559 138.491V133.748H88.0061V138.491H82.4559ZM82.4559 162.709V141.82H87.965V162.709H82.4559Z" fill="black"/>
<path d="M92.728 162.709V133.29H98.2372V162.709H92.728Z" fill="black"/>
<path d="M109.959 163.167C108.965 163.167 108.053 163.049 107.225 162.813C106.397 162.578 105.672 162.203 105.05 161.69C104.429 161.177 103.904 160.504 103.476 159.672C103.048 158.84 102.724 157.82 102.503 156.613C102.282 155.407 102.172 153.999 102.172 152.39C102.172 150.005 102.469 147.993 103.063 146.356C103.656 144.72 104.601 143.479 105.9 142.632C107.197 141.786 108.923 141.363 111.077 141.363C111.491 141.363 111.974 141.384 112.527 141.426C113.079 141.468 113.617 141.523 114.142 141.592C114.667 141.662 115.095 141.724 115.426 141.78V133.291H120.976V162.71H115.509L115.467 161.503C115.08 161.725 114.577 161.968 113.956 162.232C113.335 162.496 112.678 162.717 111.988 162.897C111.298 163.077 110.622 163.167 109.959 163.167ZM111.367 158.506C111.864 158.506 112.368 158.451 112.879 158.34C113.389 158.23 113.872 158.098 114.329 157.945C114.784 157.793 115.15 157.647 115.426 157.508V146.315C115.178 146.259 114.846 146.211 114.432 146.169C114.018 146.127 113.59 146.086 113.149 146.044C112.706 146.002 112.306 145.981 111.948 145.981C110.87 145.981 110.035 146.231 109.442 146.73C108.847 147.23 108.427 147.958 108.178 148.915C107.93 149.872 107.806 151.03 107.806 152.389C107.806 153.582 107.888 154.574 108.054 155.364C108.219 156.155 108.461 156.779 108.779 157.237C109.096 157.694 109.476 158.021 109.918 158.215C110.359 158.41 110.842 158.506 111.367 158.506Z" fill="black"/>
</svg>
